<svg xmlns="http://www.w3.org/2000/svg" width="273" height="74" fill="none" style=""><rect id="backgroundrect" width="100%" height="100%" x="0" y="0" fill="none" stroke="none"/>

<g class="currentLayer" style=""><title>Layer 1</title><path fill-rule="evenodd" clip-rule="evenodd" d="M158.74900455715027,73.4636494779528 C154.00800442053247,73.46725699988299 149.15400428065828,73.46600639228052 144.19300413770088,73.46475578467806 C141.640004064133,73.46413048087682 139.05800398972946,73.4635051770756 136.44900391454786,73.4635051770756 C133.84100383939506,73.4635051770756 131.25900376499146,73.46413048087682 128.70600369142358,73.46475578467806 C91.86610262983568,73.47403914111175 60.88290173701595,73.48187948877339 38.6738010970329,71.5138560251224 C26.817000755364344,70.46315323788076 17.635400490785035,68.86237550672337 11.424500311810164,66.45572547665338 C5.262290134238358,64.06797886149761 1.9011800373837606,60.83876573105136 1.9011800373837606,56.406419986739735 C1.9011800373837606,51.973978041843296 5.26272013425075,48.717347744727576 11.43170031201764,46.29030319067891 C17.64690049111642,43.845028625809675 26.832100755799466,42.19425064069982 38.68660109740175,41.0930569765232 C61.890001766036804,38.93761553355486 94.6813027109592,38.9385871594614 133.716003835793,38.93974156647906 C134.62400386195816,38.939770426654505 135.53500388820976,38.939799286829945 136.44900391454786,38.939799286829945 C137.3640039409147,38.939799286829945 138.2750039671663,38.939770426654505 139.18300399333145,38.93974156647906 C178.2180051181739,38.9385871594614 211.00900606308767,38.93761553355486 234.2120067317112,41.0930569765232 C246.0670070733279,42.19425064069982 255.25200733800517,43.845028625809675 261.4670075170982,46.29030319067891 C267.6360076948657,48.717347744727576 270.99800779174586,51.973978041843296 270.99800779174586,56.406419986739735 C270.99800779174586,60.83876573105136 267.6370076948945,64.06797886149761 261.47400751729987,66.45572547665338 C255.2630073383222,68.86237550672337 246.0820070737601,70.46315323788076 234.22500673208583,71.5138560251224 C218.98500629292613,72.86431983461684 199.61300573469765,73.28442778846085 177.05200508457415,73.41208596449724 C184.28600529303094,73.11607676505187 191.27200549434127,72.75253475507327 197.80000568245384,72.3369482287151 C206.9890059472463,71.7520005728075 215.27900618613307,71.06339678677236 222.08600638228535,70.31360942880119 C228.8760065779477,69.56550558106406 234.2420067325757,68.75102332981143 237.5450068277558,67.90599739288314 C237.85100683657356,67.82769011685177 237.94300683922467,67.66294661537299 237.75100683369197,67.53807825629592 C237.55900682815923,67.41316179692646 237.15600681654627,67.37540306739044 236.84900680769965,67.45371034342182 C233.71900671750478,68.25486881367895 228.50800656734333,69.05304506580711 221.745006372459,69.79816669541529 C214.99700617800693,70.54155671449693 206.75500594050334,71.22655297860187 197.59900567666176,71.80943232193616 C185.74600533510267,72.56398160885522 172.37500494980054,73.14652425014268 158.74900455715027,73.4636494779528 zM158.78000455804357,73.99765892420609 C226.8900065207186,73.94590300958092 272.30600782943753,72.88760037613967 272.30600782943753,56.406419986739735 C272.30600782943753,38.40143443606007 218.10400626753903,38.40323944763277 139.32300399736573,38.405862420550875 C138.36900396987505,38.40589419752804 137.41100394226908,38.40592609523695 136.44900391454786,38.40592609523695 C135.48800388685544,38.40592609523695 134.53000385924946,38.40589419800905 133.57500383172987,38.405862420550875 C54.7949015615826,38.40323944763277 0.5927729996803736,38.40143443606007 0.5927729996803736,56.406419986739735 C0.5927729996803736,74.03209873356633 52.535101496463625,74.01853445110879 128.6290036892047,73.99871713063894 C130.99500375738398,73.99809182683771 133.38400382622604,73.99746652303648 135.795003895702,73.99737032245167 C136.01300390198395,73.99732222215928 136.23100390826585,73.99737032245167 136.44900391454786,73.99737032245167 C139.08300399044987,73.99737032245167 141.69000406557382,73.99804372654532 144.26900413989097,73.99871713063894 C149.21100428230085,74.00001583853381 154.05000442174276,74.00126644613628 158.78000455804357,73.99765892420609 z" fill="#B114FF" id="svg_1" class=""/></g></svg>