<svg width="273" height="74" viewBox="0 0 273 74" fill="none" xmlns="http://www.w3.org/2000/svg">
<path fill-rule="evenodd" clip-rule="evenodd" d="M158.749 72.8849C154.008 72.8924 149.154 72.8898 144.193 72.8872C141.64 72.8859 139.058 72.8846 136.449 72.8846C133.841 72.8846 131.259 72.8859 128.706 72.8872C91.8661 72.9065 60.8829 72.9228 38.6738 68.8313C26.817 66.6469 17.6354 63.3189 11.4245 58.3155C5.26229 53.3514 1.90118 46.6379 1.90118 37.4231C1.90118 28.2081 5.26272 21.4376 11.4317 16.3918C17.6469 11.3081 26.8321 7.87615 38.6866 5.58678C61.89 1.10564 94.6813 1.10766 133.716 1.11006C134.624 1.11012 135.535 1.11018 136.449 1.11018C137.364 1.11018 138.275 1.11012 139.183 1.11006C178.218 1.10766 211.009 1.10564 234.212 5.58678C246.067 7.87615 255.252 11.3081 261.467 16.3918C267.636 21.4376 270.998 28.2081 270.998 37.4231C270.998 46.6379 267.637 53.3514 261.474 58.3155C255.263 63.3189 246.082 66.6469 234.225 68.8313C218.985 71.6389 199.613 72.5123 177.052 72.7777C184.286 72.1623 191.272 71.4065 197.8 70.5425C206.989 69.3264 215.279 67.8948 222.086 66.336C228.876 64.7807 234.242 63.0874 237.545 61.3306C237.851 61.1678 237.943 60.8253 237.751 60.5657C237.559 60.306 237.156 60.2275 236.849 60.3903C233.719 62.0559 228.508 63.7153 221.745 65.2644C214.997 66.8099 206.755 68.234 197.599 69.4458C185.746 71.0145 172.375 72.2256 158.749 72.8849ZM158.78 73.9951C226.89 73.8875 272.306 71.6873 272.306 37.4231C272.306 -0.00907484 218.104 -0.00532224 139.323 0.000130893C138.369 0.000196957 137.411 0.000263272 136.449 0.000263272C135.488 0.000263272 134.53 0.000196958 133.575 0.000130893C54.7949 -0.00532224 0.592773 -0.00907484 0.592773 37.4231C0.592773 74.0667 52.5351 74.0385 128.629 73.9973C130.995 73.996 133.384 73.9947 135.795 73.9945C136.013 73.9944 136.231 73.9945 136.449 73.9945C139.083 73.9945 141.69 73.9959 144.269 73.9973C149.211 74 154.05 74.0026 158.78 73.9951Z" fill="#B114FF"/>
</svg>
