<svg xmlns="http://www.w3.org/2000/svg" width="273" height="74" fill="none" style=""><rect id="backgroundrect" width="100%" height="100%" x="0" y="0" fill="none" stroke="none"/>

<g class="currentLayer" style=""><title>Layer 1</title><path fill-rule="evenodd" clip-rule="evenodd" d="M159.59258260075288,73.4636494779528 C154.8262947876325,73.46725699988299 149.94640424874055,73.46600639228052 144.9589429872155,73.46475578467806 C142.39232565186506,73.46413048087682 139.79655363467947,73.4635051770756 137.1736376033715,73.4635051770756 C134.5517269059199,73.4635051770756 131.95595488873428,73.46413048087682 129.38933755338385,73.46475578467806 C92.35293881755288,73.47403914111175 61.20447887841087,73.48187948877339 38.87691872857486,71.5138560251224 C26.956876260191372,70.46315323788076 17.72630292440855,68.86237550672337 11.482274875788097,66.45572547665338 C5.28719653263502,64.06797886149761 1.9081588546014525,60.83876573105136 1.9081588546014525,56.406419986739735 C1.9081588546014525,51.973978041843296 5.2876288261932665,48.717347744727576 11.489513279554066,46.29030319067891 C17.737864263756975,43.845028625809675 26.97205680142278,42.19425064069982 38.88978700193658,41.0930569765232 C62.21695060517602,38.93761553355486 95.18315469004742,38.9385871594614 134.4260601738718,38.93974156647906 C135.3389033154692,38.939770426654505 136.25476245863575,38.939799286829945 137.1736376033715,38.939799286829945 C138.0935180819636,38.939799286829945 139.00937722513015,38.939770426654505 139.92222036672757,38.93974156647906 C179.16542745070885,38.9385871594614 212.13132993542334,38.93761553355486 235.45809140512023,41.0930569765232 C247.37632427256221,42.19425064069982 256.61031574345674,43.845028625809675 262.8584656608884,46.29030319067891 C269.06037022092636,48.717347744727576 272.44030264609205,51.973978041843296 272.44030264609205,56.406419986739735 C272.44030264609205,60.83876573105136 269.0613755547827,64.06797886149761 262.865502997883,66.45572547665338 C256.621374415877,68.86237550672337 247.39140428040798,70.46315323788076 235.47116074525323,71.5138560251224 C220.14987277394863,72.86431983461684 200.674545308062,73.28442778846085 177.99320817416415,73.41208596449724 C185.26579329125192,73.11607676505187 192.28905561195623,72.75253475507327 198.85187502643635,72.3369482287151 C208.08988783275638,71.7520005728075 216.4241055021865,71.06339678677236 223.26741306259797,70.31360942880119 C230.09362994745086,69.56550558106406 235.48825142081176,68.75102332981143 238.8088691484508,67.90599739288314 C239.11650130850458,67.82769011685177 239.20899202329198,67.66294661537299 239.0159679228661,67.53807825629592 C238.8229438224402,67.41316179692646 238.41779427831713,67.37540306739044 238.109156784407,67.45371034342182 C234.96246181392252,68.25486881367895 229.72366708830126,69.05304506580711 222.92459421757073,69.79816669541529 C216.140601354686,70.54155671449693 207.85463971036233,71.22655297860187 198.64980292130298,71.80943232193616 C186.73358072157376,72.56398160885522 173.29126172785237,73.14652425014268 159.59258260075288,73.4636494779528 zM159.6237479503008,73.99765892420609 C228.09703690867062,73.94590300958092 273.75527933024335,72.88760037613967 273.75527933024335,56.406419986739735 C273.75527933024335,38.40143443606007 219.26417364647364,38.40323944763277 140.06296710662144,38.405862420550875 C139.10387860763032,38.40589419752804 138.14076877321367,38.40592609523695 137.1736376033715,38.40592609523695 C136.20751176738568,38.40592609523695 135.24440193296903,38.40589419800905 134.2843081001215,38.405862420550875 C55.084006360740105,38.40323944763277 0.5927729995705653,38.40143443606007 0.5927729995705653,56.406419986739735 C0.5927729995705653,74.03209873356633 52.8121529120817,74.01853445110879 129.31192684644222,73.99871713063894 C131.6905467506487,73.99809182683771 134.09228933355203,73.99746652303648 136.5161492612958,73.99737032245167 C136.73531204198773,73.99732222215928 136.95447482267957,73.99737032245167 137.1736376033715,73.99737032245167 C139.8216869810891,73.99737032245167 142.4425923446843,73.99804372654532 145.03534836030076,73.99871713063894 C150.0037082785545,74.00001583853381 154.86851880960066,74.00126644613628 159.6237479503008,73.99765892420609 z" fill="#B114FF" id="svg_1" class=""/></g></svg>