<svg xmlns="http://www.w3.org/2000/svg" width="273" height="74" fill="none" style=""><rect id="backgroundrect" width="100%" height="100%" x="0" y="0" fill="none" stroke="none"/>

<g class="currentLayer" style=""><title>Layer 1</title><path fill-rule="evenodd" clip-rule="evenodd" d="M157.90541985600774,73.25617325845721 C153.18970759546346,73.2611761969971 148.36159805893485,73.25944184496994 143.4270592433769,73.25770749294279 C140.88767653905933,73.25684031692919 138.31944851612633,73.25597314091561 135.7243645068962,73.25597314091561 C133.13027516382522,73.25597314091561 130.5620471408922,73.25684031692919 128.02266443657462,73.25770749294279 C91.37926259999459,73.2705817214521 60.56132205772584,73.2814547745455 38.470681862481285,70.55218503641368 C26.677124146636178,69.09506251020689 17.544497339757136,66.87509191543658 11.366725291873863,63.53753155670051 C5.237383539279749,60.226186595913475 1.8942011650890611,55.74788954423368 1.8942011650890611,49.60107913657464 C1.8942011650890611,43.4541353172212 5.237811245728185,38.93781593263818 11.373886888219763,35.571972294689886 C17.555936000587394,32.1808471406533 26.692143605639387,29.891535817720037 38.483413589318445,28.36439216370884 C61.56305034660881,25.375209762552302 94.17944677124207,25.376557220665717 133.0059418939311,25.37815816099848 C133.90909876644199,25.3781981845068 134.81523963743035,25.378238208015123 135.7243645068962,25.378238208015123 C136.63448404252117,25.378238208015123 137.54062491350953,25.3781981845068 138.44378178602045,25.37815816099848 C177.2705753085572,25.376557220665717 209.8866733333427,25.375209762552302 232.96591222416941,28.36439216370884 C244.75767954092805,29.891535817720037 253.89368821274823,32.1808471406533 260.07553839188404,35.571972294689886 C266.2116339276988,38.93781593263818 269.5557015547711,43.4541353172212 269.5557015547711,49.60107913657464 C269.5557015547711,55.74788954423368 266.21262859385797,60.226186595913475 260.08250105499803,63.53753155670051 C253.90462954049892,66.87509191543658 244.77259953331534,69.09506251020689 232.97884288423842,70.55218503641368 C217.82013061874693,72.42501840236233 198.5514577836353,73.00762727179512 176.11079456698482,73.18466459026027 C183.3062095622975,72.77415680659993 190.25494735014024,72.26999401347271 196.74812803709096,71.69365549367657 C205.88811537354772,70.88244568589408 214.13389783292595,69.92748477739853 220.90459037828035,68.88767403126636 C227.6583735989291,67.8501979897861 232.995752208944,66.72066787917177 236.2811345326263,65.5487795555863 C236.58550237732715,65.44018243634693 236.6770116639692,65.21171490969164 236.48603576141184,65.038546530364 C236.29505985885447,64.86531144518916 235.8942093967158,64.81294735513825 235.58884688585584,64.92154447437761 C232.475541807707,66.03259706531793 227.29233645236081,67.13951389373193 220.56540921800917,68.17285417268587 C213.85340197604484,69.20379304114064 205.65536349230592,70.15375101109629 196.5482001391012,70.96209246744924 C184.75842215466088,72.0085070924541 171.4587409406263,72.81638160787665 157.90541985600774,73.25617325845721 zM157.93625450694148,73.99674157405636 C225.68296660685127,73.92496608247063 270.85672489094316,72.45730403240646 270.85672489094316,49.60107913657464 C270.85672489094316,24.63162978468149 216.94382973253317,24.634132988303463 138.58303504830187,24.637770546869984 C137.6341235324699,24.637814615420872 136.68123335200136,24.637858851403443 135.7243645068962,24.637858851403443 C134.76849032795016,24.637858851403443 133.8156001474816,24.637814616087933 132.8656939654905,24.637770546869984 C54.505794480802464,24.634132988303463 0.5927729997901822,24.63162978468149 0.5927729997901822,49.60107913657464 C0.5927729997901822,74.04450296065058 52.25804789434855,74.02569191174057 127.94607514231984,73.99820910269472 C130.2994552748758,73.99734192668114 132.67571272909228,73.99647475066757 135.07385283881013,73.99634133897317 C135.2906900615055,73.99627463312598 135.50752728420082,73.99634133897317 135.7243645068962,73.99634133897317 C138.34431517010515,73.99634133897317 140.93740984701697,73.99727522083396 143.50265387147255,73.99820910269472 C148.4182940300066,74.00001016056909 153.2314835741479,74.00174451259626 157.93625450694148,73.99674157405636 z" fill="#B114FF" id="svg_1" class=""/></g></svg>