<svg width="709" height="138" viewBox="0 0 709 138" fill="none" xmlns="http://www.w3.org/2000/svg">
<path opacity="0.2" d="M0.6 57.896C0.6 45.8 2.424 35.864 6.072 28.088C9.72 20.216 15.288 14.36 22.776 10.52C30.264 6.68 39.72 4.75999 51.144 4.75999C54.504 4.75999 57.672 4.856 60.648 5.048C63.624 5.24 66.504 5.528 69.288 5.912C72.072 6.296 74.76 6.776 77.352 7.352C79.944 7.92799 82.536 8.59999 85.128 9.368L79.8 32.696C75.288 31.64 70.728 30.824 66.12 30.248C61.608 29.672 57.432 29.384 53.592 29.384C48.12 29.384 43.656 30.392 40.2 32.408C36.744 34.328 34.2 37.448 32.568 41.768C31.032 45.992 30.264 51.512 30.264 58.328C30.264 65.048 30.984 70.424 32.424 74.456C33.864 78.392 36.024 81.224 38.904 82.952C41.88 84.584 45.624 85.4 50.136 85.4C52.536 85.4 54.792 85.304 56.904 85.112C59.112 84.824 60.984 84.44 62.52 83.96V70.568H48.12V48.104H88.728V100.088C82.872 102.968 76.44 105.08 69.432 106.424C62.52 107.768 54.888 108.44 46.536 108.44C36.168 108.44 27.576 106.616 20.76 102.968C14.04 99.32 9 93.8 5.64 86.408C2.28 78.92 0.6 69.416 0.6 57.896ZM98.6561 84.392C98.6561 79.592 99.5201 75.656 101.248 72.584C102.976 69.512 105.664 67.064 109.312 65.24C112.96 63.32 117.568 61.88 123.136 60.92C128.8 59.864 135.568 59.096 143.44 58.616V56.168C143.44 53.96 142.288 52.376 139.984 51.416C137.776 50.456 134.656 49.976 130.624 49.976C128.608 49.976 126.256 50.072 123.568 50.264C120.976 50.456 118.24 50.84 115.36 51.416C112.576 51.896 109.744 52.52 106.864 53.288L102.544 31.4C106.96 30.056 111.904 28.952 117.376 28.088C122.848 27.224 127.984 26.792 132.784 26.792C142 26.792 149.392 27.896 154.96 30.104C160.624 32.312 164.752 35.576 167.344 39.896C169.936 44.216 171.232 49.544 171.232 55.88V79.064C171.232 81.176 171.52 82.616 172.096 83.384C172.672 84.056 173.344 84.392 174.112 84.392C174.592 84.392 175.072 84.344 175.552 84.248C176.128 84.152 176.656 84.056 177.136 83.96L179.296 103.976C177.184 105.32 174.736 106.376 171.952 107.144C169.264 108.008 166.288 108.44 163.024 108.44C158.8 108.44 155.296 107.768 152.512 106.424C149.728 104.984 147.568 102.92 146.032 100.232C143.536 101.96 141.04 103.448 138.544 104.696C136.144 105.944 133.552 106.856 130.768 107.432C127.984 108.104 124.816 108.44 121.264 108.44C118 108.44 114.976 107.912 112.192 106.856C109.408 105.704 107.008 104.072 104.992 101.96C102.976 99.848 101.392 97.352 100.24 94.472C99.1841 91.496 98.6561 88.136 98.6561 84.392ZM127.168 82.664C127.168 85.352 127.696 87.32 128.752 88.568C129.808 89.816 131.2 90.44 132.928 90.44C133.888 90.44 134.992 90.296 136.24 90.008C137.584 89.624 138.928 89.144 140.272 88.568C141.616 87.896 142.672 87.128 143.44 86.264V73.304C140.464 73.4 137.92 73.64 135.808 74.024C133.792 74.408 132.112 74.936 130.768 75.608C129.52 76.28 128.608 77.192 128.032 78.344C127.456 79.496 127.168 80.936 127.168 82.664ZM188.376 107V28.232H213.864V35C216.84 32.984 219.672 31.4 222.36 30.248C225.144 29.096 227.784 28.232 230.28 27.656C232.872 27.08 235.464 26.792 238.056 26.792C241.128 26.792 243.768 27.128 245.976 27.8C248.28 28.472 250.248 29.48 251.88 30.824C253.512 32.072 254.904 33.704 256.056 35.72C259.608 33.512 262.776 31.784 265.56 30.536C268.44 29.192 271.224 28.232 273.912 27.656C276.696 27.08 279.528 26.792 282.408 26.792C285.192 26.792 287.736 27.128 290.04 27.8C292.344 28.472 294.36 29.48 296.088 30.824C297.816 32.168 299.256 33.8 300.408 35.72C301.656 37.544 302.568 39.656 303.144 42.056C303.816 44.456 304.152 47.048 304.152 49.832V107H275.784V59.336C275.784 57.992 275.64 56.792 275.352 55.736C275.064 54.584 274.632 53.672 274.056 53C273.576 52.232 272.904 51.656 272.04 51.272C271.272 50.888 270.264 50.696 269.016 50.696C268.152 50.696 267.192 50.84 266.136 51.128C265.176 51.32 264.168 51.608 263.112 51.992C262.152 52.28 261.192 52.712 260.232 53.288C260.328 53.864 260.376 54.488 260.376 55.16C260.376 55.736 260.376 56.36 260.376 57.032V107H232.152V59.336C232.152 57.992 232.008 56.792 231.72 55.736C231.432 54.584 231 53.672 230.424 53C229.848 52.232 229.128 51.656 228.264 51.272C227.4 50.888 226.392 50.696 225.24 50.696C224.376 50.696 223.464 50.84 222.504 51.128C221.544 51.32 220.584 51.608 219.624 51.992C218.664 52.28 217.704 52.712 216.744 53.288V107H188.376ZM356.116 108.44C349.684 108.44 343.972 107.72 338.98 106.28C333.988 104.84 329.764 102.536 326.308 99.368C322.852 96.2 320.212 92.12 318.388 87.128C316.564 82.04 315.652 75.992 315.652 68.984C315.652 61.4 316.612 54.92 318.532 49.544C320.548 44.072 323.38 39.704 327.028 36.44C330.676 33.08 334.996 30.632 339.988 29.096C344.98 27.56 350.452 26.792 356.404 26.792C368.5 26.792 377.38 29.72 383.044 35.576C388.804 41.432 391.684 50.936 391.684 64.088C391.684 65.144 391.636 66.536 391.54 68.264C391.54 69.896 391.492 71.432 391.396 72.872C388.804 73.064 385.732 73.304 382.18 73.592C378.724 73.88 374.932 74.168 370.804 74.456C366.772 74.744 362.548 75.032 358.132 75.32C353.716 75.512 349.252 75.704 344.74 75.896C344.74 76.088 344.74 76.28 344.74 76.472C344.74 76.664 344.74 76.904 344.74 77.192C344.836 79.208 345.364 80.936 346.324 82.376C347.38 83.72 349.108 84.776 351.508 85.544C354.004 86.216 357.268 86.552 361.3 86.552C363.892 86.552 366.628 86.408 369.508 86.12C372.388 85.832 375.364 85.448 378.436 84.968C381.604 84.392 384.772 83.768 387.94 83.096L391.252 103.256C387.604 104.504 383.908 105.512 380.164 106.28C376.516 106.952 372.724 107.48 368.788 107.864C364.852 108.248 360.628 108.44 356.116 108.44ZM344.884 60.056C346.612 60.056 348.34 60.008 350.068 59.912C351.796 59.816 353.476 59.768 355.108 59.768C356.836 59.672 358.42 59.576 359.86 59.48C361.3 59.384 362.548 59.336 363.604 59.336C363.508 55.976 363.124 53.384 362.452 51.56C361.78 49.64 360.82 48.296 359.572 47.528C358.324 46.76 356.74 46.376 354.82 46.376C353.572 46.376 352.372 46.568 351.22 46.952C350.164 47.336 349.204 48.056 348.34 49.112C347.476 50.072 346.756 51.464 346.18 53.288C345.604 55.016 345.172 57.272 344.884 60.056ZM403.948 137.24V28.088H429.436L430.444 34.28C434.668 31.688 438.748 29.816 442.684 28.664C446.716 27.416 450.844 26.792 455.068 26.792C463.804 26.792 470.476 30.152 475.084 36.872C479.788 43.592 482.14 53.384 482.14 66.248C482.14 75.656 480.748 83.48 477.964 89.72C475.18 95.96 470.908 100.664 465.148 103.832C459.388 106.904 452.092 108.44 443.26 108.44C441.628 108.44 439.852 108.344 437.932 108.152C436.108 108.056 434.236 107.864 432.316 107.576V137.24H403.948ZM441.388 87.992C443.98 87.992 446.092 87.416 447.724 86.264C449.452 85.112 450.7 83.144 451.468 80.36C452.332 77.576 452.764 73.832 452.764 69.128C452.764 64.232 452.428 60.44 451.756 57.752C451.18 54.968 450.172 53 448.732 51.848C447.388 50.6 445.708 49.976 443.692 49.976C442.54 49.976 441.34 50.072 440.092 50.264C438.94 50.456 437.692 50.792 436.348 51.272C435.1 51.656 433.756 52.184 432.316 52.856V86.408C433.852 86.888 435.388 87.272 436.924 87.56C438.46 87.848 439.948 87.992 441.388 87.992ZM521.959 0.439999V76.76C521.959 78.776 522.199 80.36 522.679 81.512C523.159 82.568 523.831 83.288 524.695 83.672C525.655 84.056 526.711 84.248 527.863 84.248C528.727 84.248 529.639 84.152 530.599 83.96C531.655 83.768 532.855 83.48 534.199 83.096L536.647 104.552C534.439 105.608 531.847 106.52 528.871 107.288C525.895 108.056 522.631 108.44 519.079 108.44C513.415 108.44 508.711 107.528 504.967 105.704C501.223 103.784 498.391 100.712 496.471 96.488C494.647 92.168 493.735 86.504 493.735 79.496V0.439999H521.959ZM542.525 84.392C542.525 79.592 543.389 75.656 545.117 72.584C546.845 69.512 549.533 67.064 553.181 65.24C556.829 63.32 561.437 61.88 567.005 60.92C572.669 59.864 579.437 59.096 587.309 58.616V56.168C587.309 53.96 586.157 52.376 583.853 51.416C581.645 50.456 578.525 49.976 574.493 49.976C572.477 49.976 570.125 50.072 567.437 50.264C564.845 50.456 562.109 50.84 559.229 51.416C556.445 51.896 553.613 52.52 550.733 53.288L546.413 31.4C550.829 30.056 555.773 28.952 561.245 28.088C566.717 27.224 571.853 26.792 576.653 26.792C585.869 26.792 593.261 27.896 598.829 30.104C604.493 32.312 608.621 35.576 611.213 39.896C613.805 44.216 615.101 49.544 615.101 55.88V79.064C615.101 81.176 615.389 82.616 615.965 83.384C616.541 84.056 617.213 84.392 617.981 84.392C618.461 84.392 618.941 84.344 619.421 84.248C619.997 84.152 620.525 84.056 621.005 83.96L623.165 103.976C621.053 105.32 618.605 106.376 615.821 107.144C613.133 108.008 610.157 108.44 606.893 108.44C602.669 108.44 599.165 107.768 596.381 106.424C593.597 104.984 591.437 102.92 589.901 100.232C587.405 101.96 584.909 103.448 582.413 104.696C580.013 105.944 577.421 106.856 574.637 107.432C571.853 108.104 568.685 108.44 565.133 108.44C561.869 108.44 558.845 107.912 556.061 106.856C553.277 105.704 550.877 104.072 548.861 101.96C546.845 99.848 545.261 97.352 544.109 94.472C543.053 91.496 542.525 88.136 542.525 84.392ZM571.037 82.664C571.037 85.352 571.565 87.32 572.621 88.568C573.677 89.816 575.069 90.44 576.797 90.44C577.757 90.44 578.861 90.296 580.109 90.008C581.453 89.624 582.797 89.144 584.141 88.568C585.485 87.896 586.541 87.128 587.309 86.264V73.304C584.333 73.4 581.789 73.64 579.677 74.024C577.661 74.408 575.981 74.936 574.637 75.608C573.389 76.28 572.477 77.192 571.901 78.344C571.325 79.496 571.037 80.936 571.037 82.664ZM642.775 137.24L652.423 107H649.255L620.599 28.232L651.703 28.088L665.239 84.536L678.775 28.088L708.583 28.232L672.871 137.384L642.775 137.24Z" fill="black"/>
</svg>
